<svg xmlns="http://www.w3.org/2000/svg"><symbol id="icon_message" viewBox="0 0 30 34"><path d="M15.196 4.345c5.826 0 10.565 4.75 10.565 10.59s-4.74 10.59-10.534 10.59l-.126-.008a19.036 19.036 0 0 0-.35-.02l-.711-.03-.683.204-7.085 2.122.86-3.392.473-1.865-1.094-1.584a10.533 10.533 0 0 1-1.88-6.017c0-5.84 4.74-10.59 10.565-10.59 5.826 0 0 0 0 0zM.393 14.935c0 3.132.975 6.032 2.63 8.426L.327 33.996l14.247-4.267c.208.008.412.031.622.031C23.372 29.76 30 23.123 30 14.935 30 6.747 23.372.109 15.196.109S.393 6.747.393 14.935z"/></symbol><symbol id="icon_refresh" viewBox="0 0 612.035 612.035"><path d="M323.128 56.236l5.646-9.57 40.17-40.169C271.247-13.921 165.482 13.786 89.65 89.646-16.421 195.717-28.355 360.261 53.875 479.49L10.98 522.386l137.7 19.667-19.667-137.7-34.968 34.967c-60.978-96.724-49.322-226.078 34.94-310.34 53.244-53.243 124.486-77.501 194.143-72.744zm258.264 13.743l-137.7-19.667 19.668 137.7 38.25-38.25c78.726 98.31 72.521 242.186-18.583 333.317-61.116 61.117-145.989 84.039-224.882 68.739l-45.65 45.649c105.654 33.799 226.05 8.791 309.895-75.054 112.858-112.858 119.146-291.979 18.805-412.209l40.197-40.225z"/></symbol><symbol id="icon_search" viewBox="0 0 35 34"><path d="M13.378 4.24c4.648 0 8.43 3.8 8.43 8.47 0 1.76-.54 3.454-1.563 4.897l-.83 1.171-1.165.834a8.33 8.33 0 0 1-4.872 1.57c-4.648 0-8.43-3.8-8.43-8.471 0-4.672 3.782-8.472 8.43-8.472zM.734 12.71c0 7.02 5.66 12.708 12.644 12.708 2.73 0 5.25-.878 7.316-2.355L30.848 33.27a2.1 2.1 0 0 0 2.986 0 2.128 2.128 0 0 0 0-3L23.679 20.064a12.681 12.681 0 0 0 2.344-7.353C26.023 5.693 20.36.003 13.378.003S.734 5.693.734 12.711z"/></symbol><symbol id="icon_star" viewBox="0 0 39 37"><path fill-rule="evenodd" d="M19.5 2.501l5.603 10.056 11.395 2.166-7.933 8.382 1.44 11.394L19.5 29.623 8.995 34.499l1.439-11.394-7.932-8.382 11.395-2.166L19.5 2.501"/></symbol><symbol id="icon_write" viewBox="0 0 34 34"><path d="M25.804 5.092L12.728 17.688v3.495h3.498L28.834 8.119zm.027-5.089c.541 0 1.083.207 1.495.62l5.981 5.975a2.112 2.112 0 0 1 0 2.988l-15.28 15.832H8.489v-9.53L24.336.62A2.111 2.111 0 0 1 25.83.003zM29.687 23.3a2.12 2.12 0 0 1 4.24 0v8.472a2.12 2.12 0 0 1-2.12 2.119H2.129a2.12 2.12 0 0 1-2.12-2.119V2.122a2.12 2.12 0 0 1 2.12-2.12h8.48a2.12 2.12 0 1 1 0 4.236h-5.3a1.06 1.06 0 0 0-1.06 1.059v23.298c0 .585.474 1.059 1.06 1.059h23.318a1.06 1.06 0 0 0 1.06-1.06z"/></symbol></svg>